<svg xmlns="http://www.w3.org/2000/svg" viewBox="0 0 512 512">
 <rect width="512" height="512" fill="#ffffff" rx="100" ry="100"/>
 <path fill="#f97316" d="M256 48c0 0 36.9 166.1 63.1 192.9S512 304 512 304s-166.1 36.9-192.9 63.1S256 560 256 560s-36.9-166.1-63.1-192.9S-48 304 -48 304s166.1-36.9 192.9-63.1S256 48 256 48z"/>
 <path fill="#f97316" d="M384 64c0 0 18.5 83.1 31.6 96.4S512 192 512 192s-83.1 18.5-96.4 31.6S384 320 384 320s-18.5-83.1-31.6-96.4S256 192 256 192s83.1-18.5 96.4-31.6S384 64 384 64z"/>
</svg>